<svg width="70" height="70" viewBox="0 0 70 70" fill="none" xmlns="http://www.w3.org/2000/svg">
<path d="M65.3102 17.5118C60.6369 9.41732 53.0912 3.62742 44.0631 1.20832C35.0353 -1.21078 25.6055 0.0307594 17.5111 4.70394C9.41681 9.37713 3.62677 16.9229 1.2078 25.9509C-1.21117 34.9788 0.0302406 44.4087 4.70342 52.503C8.89536 59.7637 15.5579 65.2818 23.4638 68.0405C27.2114 69.3481 31.1236 70.0007 35.0298 70.0007C39.277 70.0007 43.5165 69.2288 47.5239 67.6886C48.2287 67.4178 48.5803 66.6269 48.3093 65.9221C48.0384 65.2173 47.2473 64.8652 46.5428 65.1366C35.876 69.2364 24.3284 67.3736 15.7011 60.8978L16.9259 54.5042L17.5162 54.3125C19.7465 53.5879 20.9715 51.1838 20.2471 48.9534L19.814 47.6205C19.7138 47.3121 19.7143 46.986 19.8154 46.6778C20.1953 45.5195 20.0595 44.2523 19.4428 43.2007C18.8261 42.1492 17.7863 41.4118 16.5899 41.1779L13.5041 40.575L7.55032 36.0482C7.19362 35.777 6.72673 35.6978 6.30044 35.8362L2.81466 36.9685C2.74069 35.7217 2.7396 34.4754 2.80987 33.2356C2.94741 33.3638 3.03696 33.4508 3.09206 33.508C3.16028 33.6216 3.24477 33.7258 3.34376 33.816C3.62841 34.0752 3.88626 34.1928 4.42766 34.1928C4.92518 34.1927 5.66169 34.0936 6.8778 33.9139C8.03116 33.7434 9.1785 33.5513 9.18985 33.5494C9.64964 33.4724 10.0383 33.1662 10.2213 32.7376C10.4042 32.3088 10.3559 31.8165 10.0933 31.4312L8.41698 28.9725L10.818 27.2556C10.978 27.1411 11.1114 26.9936 11.2092 26.823L14.9311 20.3254L16.4313 18.7179C17.9643 17.0748 18.4018 14.6709 17.5457 12.5933C17.0407 11.3679 16.1585 10.3477 15.0552 9.66013C16.2501 8.72074 17.5242 7.8534 18.8783 7.07177C23.8464 4.20342 29.2681 2.8134 34.6328 2.76021L32.1916 5.82258L23.1387 8.99623C22.7711 9.12502 22.4758 9.40474 22.3273 9.76486L19.7991 15.8937C19.6196 16.3291 19.6766 16.826 19.9502 17.2093L23.6427 22.3817C23.1138 22.8642 22.5991 23.5669 21.9843 24.4394C21.7147 24.8221 21.4601 25.1835 21.2841 25.3861C21.1311 25.5624 20.978 25.7347 20.8263 25.9053C20.0321 26.7988 19.2109 27.7229 18.6275 28.9572C17.3449 31.6723 17.6039 34.828 19.3036 37.193C20.9471 39.4796 23.6566 40.642 26.5485 40.3018C27.0196 40.2466 27.4589 40.1379 27.884 40.0326C29.056 39.7426 29.4274 39.7136 29.8033 40.0656C29.9863 40.2369 30.0031 40.2693 29.9994 40.8502C29.9968 41.2199 29.9939 41.6798 30.1214 42.2049C30.3255 43.0451 30.8531 43.6257 31.2769 44.0922C31.4876 44.3239 31.7055 44.5637 31.7726 44.7247C32.1991 45.7465 32.0134 46.3124 31.6065 47.5524C31.5717 47.6585 31.5361 47.7668 31.5004 47.8778C30.8823 49.7912 31.7439 51.6891 32.5041 53.3634C32.751 53.9071 32.9841 54.4203 33.1368 54.874C34.3661 58.5215 35.2876 59.3568 36.0271 59.6932C36.4144 59.8693 36.8152 59.9465 37.2202 59.9464C39.191 59.9462 41.2475 58.1164 42.1923 56.9563C42.7856 56.2279 42.9318 55.4985 43.0384 54.9657C43.0916 54.7008 43.1334 54.4916 43.2133 54.3549C43.3355 54.1457 43.4795 53.9835 43.6617 53.7782C44.0283 53.3654 44.4845 52.8519 44.7799 51.921C45.0044 51.2139 45.1675 51.0405 45.7077 50.4652C45.8018 50.3653 45.902 50.2584 46.0096 50.1413C47.8305 48.1599 47.3616 46.6462 46.8649 45.0436C46.4469 43.6952 47.178 42.8328 48.9455 41.1868C49.7117 40.4733 50.5038 39.7355 51.1162 38.849C51.3841 38.461 52.1994 37.2807 51.6949 36.1108C51.2004 34.9638 49.9435 34.771 48.9337 34.6162C48.5349 34.555 47.9323 34.4626 47.7404 34.3372C46.8946 33.7842 46.3771 32.63 45.8766 31.5137C45.7769 31.2915 45.6786 31.0722 45.5789 30.8593C45.4012 30.4795 45.2236 30.02 45.0356 29.5336C44.5382 28.2462 43.9745 26.787 43.0149 25.7698C42.1523 24.8559 40.5263 24.4156 39.0918 24.0271C38.6093 23.8965 38.1539 23.7732 37.8535 23.6623C37.6018 23.5694 37.3286 23.5525 37.068 23.6138C36.3698 23.7774 35.9342 23.9578 35.6108 24.217C35.5253 24.2855 35.2722 24.5104 35.124 24.8719C34.6235 24.6317 33.9353 24.173 33.5117 23.8906C33.503 23.8848 33.4941 23.8789 33.4853 23.873C33.6281 23.3018 33.4989 22.8434 33.3635 22.5571C32.5998 20.9416 30.0646 21.0681 29.5645 21.1106C29.2804 21.1344 28.921 21.1471 28.5408 21.1605C27.9436 21.1817 27.2835 21.2055 26.6304 21.2788L26.664 21.185C27.1598 19.8037 28.4788 18.8757 29.9464 18.8757H30.7236C31.4784 18.8757 32.0907 18.2634 32.0907 17.5086C32.0907 16.7538 31.4784 16.1416 30.7236 16.1416H29.9464C27.7676 16.1416 25.7725 17.2882 24.6542 19.093L22.6151 16.2366L24.6213 11.3736L33.4674 8.2723C33.71 8.18726 33.9238 8.03551 34.0842 7.83439L38.0166 2.90172C48.0646 3.85752 57.5228 9.49115 62.9426 18.8785C64.3862 21.379 65.4541 24.0114 66.1641 26.7038L65.5846 27.2206C64.8281 27.8955 64.3849 28.8637 64.3679 29.8769C64.3678 29.8879 64.3675 29.8989 64.3671 29.9098L63.4229 27.3133C63.2822 26.9258 63.075 26.5705 62.8073 26.2572L61.123 24.2853C60.4701 23.521 59.5193 23.0828 58.5143 23.0828H56.4527C55.7209 23.0828 55.052 23.4836 54.7068 24.1285C54.3616 24.7736 54.3993 25.5526 54.8052 26.1613L55.0139 26.4745C53.6817 27.6201 52.1409 28.5368 50.5002 29.155L47.6743 23.7419V22.5343C47.6743 22.1607 47.5214 21.8032 47.2511 21.5455L44.7064 19.1162C44.566 18.9822 44.3986 18.8796 44.2156 18.8152L41.9248 18.0102C41.2121 17.7595 40.432 18.1345 40.1818 18.8467C39.9315 19.5591 40.306 20.3394 41.0183 20.5897L43.0313 21.2972L44.9402 23.1193V24.0774C44.9402 24.2977 44.9935 24.5148 45.0955 24.7101L48.6334 31.4869C48.9515 32.0966 49.6736 32.3753 50.3181 32.1368L51.3483 31.757C53.7416 30.8744 55.9598 29.4545 57.7634 27.6512C58.2242 27.1903 58.2958 26.4686 57.9342 25.9262L57.8615 25.817H58.5143C58.7184 25.817 58.9116 25.906 59.0442 26.0613L60.7285 28.0332C60.7827 28.0968 60.8247 28.1687 60.8534 28.2476L62.7121 33.3586C62.8718 33.7977 63.2448 34.1247 63.7006 34.2259C63.799 34.2476 63.8981 34.2583 63.9967 34.2583C64.3553 34.2583 64.7044 34.1171 64.9633 33.8578L65.848 32.9731C66.4083 32.4127 66.794 31.7037 66.9783 30.9177C68.3466 41.8832 64.0469 53.2265 54.9586 60.3597C54.3646 60.8258 54.261 61.685 54.7273 62.2791C55.1934 62.8731 56.0525 62.9768 56.6467 62.5104C63.2081 57.3606 67.7157 49.9949 69.3393 41.77C70.978 33.4659 69.5472 24.8505 65.3102 17.5118ZM6.46477 38.6576L12.1021 42.9439C12.2688 43.0706 12.4621 43.1573 12.6674 43.1974L16.0652 43.8613C16.4988 43.9461 16.8606 44.2025 17.0841 44.5837C17.3077 44.9647 17.3547 45.4057 17.2172 45.8255C16.9341 46.6886 16.9328 47.6015 17.2135 48.4652L17.6466 49.7979C17.9054 50.5944 17.4676 51.4531 16.6712 51.712L15.3127 52.1534C14.8387 52.3074 14.4862 52.7071 14.3925 53.1963L13.2991 58.9042C10.8951 56.704 8.78448 54.1036 7.07126 51.1361C4.9811 47.5162 3.67516 43.6551 3.09958 39.751L6.46477 38.6576ZM14.4323 16.8525L12.8241 18.5756C12.7523 18.6525 12.6896 18.7376 12.6372 18.8289L8.98518 25.2049L5.73934 27.5259C5.13477 27.9582 4.9863 28.7939 5.40493 29.4081L6.61885 31.1887C5.91913 31.2929 5.29118 31.3787 4.87364 31.4243C4.79339 31.3473 4.70944 31.2692 4.62262 31.1886C4.29764 30.8867 3.84606 30.4835 3.17286 29.8944C4.28315 23.0225 7.59448 16.5486 12.8024 11.6069C13.7996 11.9209 14.618 12.6648 15.0178 13.6351C15.4676 14.7264 15.2376 15.9894 14.4323 16.8525ZM25.579 24.3232C26.1888 23.9801 27.6041 23.9299 28.6374 23.8932C29.0515 23.8786 29.4428 23.8647 29.7923 23.8354C29.9767 23.82 30.1815 23.8228 30.3747 23.8379C30.2884 24.0594 30.2604 24.3024 30.2979 24.5436C30.3636 24.9678 30.6252 25.3363 31.0036 25.5388C31.2601 25.6761 31.6171 25.9141 31.995 26.1661C33.0634 26.8784 34.2746 27.6857 35.4124 27.7581C36.4471 27.8253 37.0228 27.2356 37.2694 26.9845C37.2891 26.9645 37.3077 26.9445 37.3274 26.9263C37.4663 26.8131 37.5965 26.6614 37.6933 26.4783C37.9119 26.5408 38.1416 26.603 38.377 26.6669C39.1865 26.886 40.6933 27.294 41.0262 27.6467C41.6175 28.2736 42.0784 29.4667 42.4851 30.5193C42.6906 31.0513 42.8847 31.5533 43.1025 32.0188C43.196 32.2186 43.2881 32.4244 43.3816 32.6327C44.0124 34.0398 44.7274 35.6348 46.2443 36.6263C46.9322 37.0759 47.7753 37.2051 48.5193 37.3193C48.6093 37.3331 48.7124 37.349 48.8171 37.3662C48.3755 37.9822 47.7467 38.5677 47.0824 39.1863C45.39 40.7624 43.2837 42.7241 44.2537 45.8534C44.7116 47.3311 44.7329 47.4908 43.9967 48.2917C43.8963 48.4009 43.8028 48.5004 43.7152 48.5937C43.0846 49.265 42.5866 49.7952 42.1742 51.094C42.0544 51.4712 41.8993 51.6459 41.6175 51.9631C41.3922 52.2169 41.1115 52.5329 40.8527 52.9759C40.5426 53.5067 40.4401 54.0177 40.3579 54.4283C40.2768 54.8323 40.2309 55.035 40.0723 55.2297C39.7112 55.673 39.0377 56.3166 38.3464 56.7559C37.7038 57.1639 37.3286 57.2197 37.2008 57.212C37.0549 57.0556 36.5265 56.3708 35.7281 54.001C35.5312 53.4164 35.258 52.8149 34.9939 52.2331C34.4116 50.9507 33.8096 49.6245 34.1025 48.7182C34.1371 48.6113 34.1712 48.5069 34.2049 48.4047C34.6727 46.9787 35.1143 45.6322 34.2962 43.6717C34.0471 43.0746 33.6505 42.6383 33.3009 42.2533C33.0746 42.0044 32.8183 41.7222 32.7788 41.5598C32.7306 41.3617 32.7321 41.1329 32.7339 40.8681C32.7386 40.1537 32.7457 39.0744 31.6726 38.0695C30.1596 36.6533 28.3954 37.0896 27.2278 37.3784C26.8692 37.467 26.5304 37.5509 26.2302 37.5862C24.3096 37.8112 22.5949 37.0866 21.5243 35.5969C20.4045 34.0387 20.2419 31.9419 21.1002 30.1249C21.5157 29.2456 22.1434 28.5392 22.8702 27.7216C23.0289 27.5429 23.1892 27.3628 23.3494 27.1782C23.616 26.8708 23.9094 26.4547 24.2196 26.014C24.59 25.4883 25.2796 24.5094 25.579 24.3232Z" fill="#A9AFC3"/>
</svg>
