<svg width="70" height="70" viewBox="0 0 70 70" fill="none" xmlns="http://www.w3.org/2000/svg">
<g clip-path="url(#clip0)">
<path d="M54.7633 64.2367V53.6667H52.4299V58.3333H17.5188L17.4989 55.9897L15.1655 56.0103L15.2345 64.2367C15.2384 67.4183 17.8173 69.9966 20.9989 70H48.9989C52.181 69.9966 54.7598 67.4183 54.7633 64.2367ZM48.9989 67.6667H20.9989C19.1019 67.6632 17.5661 66.1235 17.5678 64.2259L17.5387 60.6667H52.4299V64.2367C52.4277 66.1303 50.893 67.665 48.9989 67.6667Z" fill="white"/>
<path d="M33.8323 63H36.1656V65.3333H33.8323V63Z" fill="white"/>
<path d="M41.9988 11.6667V14H52.4298V16.3333H54.7632V10.4299C54.7598 7.24837 52.1809 4.67009 48.9988 4.66667H41.9988V7H48.9988C50.8929 7.00171 52.4276 8.53638 52.4298 10.4299V11.6667H41.9988Z" fill="white"/>
<path d="M6.99878 4.66667V18.6667C6.99878 21.2438 9.0883 23.3333 11.6654 23.3333H19.4823L26.1884 27.804C26.5461 28.041 27.0053 28.0621 27.3835 27.8593C27.7618 27.6565 27.9982 27.2623 27.9988 26.8333V23.3333H34.9988C37.5765 23.3333 39.6654 21.2438 39.6654 18.6667V4.66667C39.6654 2.08952 37.5765 0 34.9988 0H11.6654C9.0883 0 6.99878 2.08952 6.99878 4.66667ZM37.3321 4.66667V18.6667C37.3321 19.9552 36.2874 21 34.9988 21H26.8321C26.1878 21 25.6654 21.5224 25.6654 22.1667V24.6538L20.4798 21.196C20.2878 21.0684 20.0628 21.0006 19.8321 21H11.6654C10.3769 21 9.33211 19.9552 9.33211 18.6667V4.66667C9.33211 3.37809 10.3769 2.33333 11.6654 2.33333H34.9988C36.2874 2.33333 37.3321 3.37809 37.3321 4.66667Z" fill="white"/>
<path d="M13.9988 53.6667C16.9929 53.6627 19.9073 52.7011 22.3158 50.9226L27.6826 52.4556C28.1281 52.5832 28.6066 52.4356 28.9023 52.0796C29.1979 51.7235 29.2549 51.2257 29.0475 50.8121L26.5604 45.8498C29.321 40.242 28.0301 33.4841 23.3965 29.2886C18.7634 25.0936 11.9104 24.4778 6.60343 27.7801C1.29647 31.0824 -1.17871 37.5025 0.538249 43.5124C2.25578 49.5224 7.74845 53.6661 13.9988 53.6667ZM13.9988 28C18.1208 28 21.937 30.1755 24.0374 33.7228C26.1377 37.2695 26.21 41.6616 24.2282 45.2761C24.0442 45.6117 24.0362 46.0161 24.2071 46.3585L25.7697 49.4831L22.3859 48.5169C22.0219 48.4144 21.6305 48.4947 21.336 48.7328C19.2653 50.4236 16.6722 51.343 13.9988 51.3333C7.55534 51.3333 2.33211 46.1101 2.33211 39.6667C2.33211 33.2232 7.55534 28 13.9988 28Z" fill="white"/>
<path d="M6.59898 42.1167L13.2595 47.5718C13.6896 47.9244 14.3088 47.9244 14.7389 47.5718L21.3994 42.1167C22.488 41.236 23.1767 39.9543 23.31 38.5603C23.4399 37.1846 23.0092 35.814 22.1154 34.7596C21.1179 33.5912 19.6852 32.8831 18.1517 32.7999C16.6176 32.7167 15.1171 33.2665 13.9989 34.3198C12.8744 33.2665 11.3682 32.7185 9.82953 32.8033C8.30056 32.8842 6.87299 33.5923 5.88234 34.7596C4.98855 35.814 4.55788 37.1846 4.68776 38.5603C4.82106 39.9543 5.50979 41.236 6.59898 42.1167ZM7.67222 36.2566C8.24758 35.5827 9.0753 35.176 9.95998 35.1327H10.1457C10.9791 35.1293 11.7823 35.446 12.389 36.0174L13.1928 36.7847C13.644 37.2159 14.3544 37.2159 14.805 36.7847L15.6093 36.0174C16.2599 35.409 17.1297 35.0917 18.0196 35.1378C18.9094 35.184 19.7416 35.5901 20.3261 36.2623C20.8177 36.8405 21.0558 37.5925 20.9875 38.3484C20.9112 39.1215 20.5261 39.8318 19.9199 40.3177L13.9989 45.1582L8.07839 40.3081C7.4717 39.8221 7.08718 39.1123 7.01084 38.3387C6.94191 37.5828 7.1806 36.8314 7.67222 36.2532V36.2566Z" fill="white"/>
<path d="M53.6656 18.6667C47.8665 18.6593 42.4997 21.7315 39.5699 26.7359C36.6402 31.7404 36.5878 37.9241 39.4326 42.9776L36.32 48.4167C36.0882 48.8223 36.1206 49.3276 36.4032 49.7001C36.6852 50.0721 37.1625 50.2402 37.616 50.1268L44.4035 48.4298C47.1208 50.3234 50.3536 51.3368 53.6656 51.3334C62.6862 51.3334 69.999 44.0206 69.999 35C69.999 25.9794 62.6862 18.6667 53.6656 18.6667ZM53.6656 49C50.6647 49.0034 47.7434 48.0333 45.3406 46.2349C45.1384 46.0834 44.8928 46.0019 44.6405 46.0019C44.5448 46.0013 44.4497 46.0127 44.3568 46.0366L39.6975 47.2033L41.7871 43.5461C42.0001 43.1735 41.9921 42.7144 41.766 42.3498C38.4243 36.9278 39.1683 29.9323 43.5747 25.3334C47.9816 20.7351 54.9383 19.6938 60.4987 22.8007C66.0586 25.9077 68.8175 32.3784 67.2105 38.5416C65.6029 44.7048 60.035 49.004 53.6656 49Z" fill="white"/>
<path d="M60.1991 31.5H58.3323V29.1667C58.3323 26.5895 56.2433 24.5 53.6656 24.5C52.377 24.5 51.3323 25.5448 51.3323 26.8333V29.8503L49.6825 31.5H45.4989C44.8547 31.5 44.3323 32.0224 44.3323 32.6667V42C44.3323 42.6443 44.8547 43.1667 45.4989 43.1667H60.1991C61.7457 43.1667 62.9989 41.9128 62.9989 40.3668V34.2999C62.9989 32.7538 61.7457 31.5 60.1991 31.5ZM46.6656 33.8333H48.9989V40.8333H46.6656V33.8333ZM60.6656 40.3668C60.6656 40.6243 60.4565 40.8333 60.1991 40.8333H51.3323V33.1497L53.3238 31.1582C53.5426 30.9395 53.6656 30.6427 53.6656 30.3333V26.8333C54.9542 26.8333 55.9989 27.8781 55.9989 29.1667V31.5C55.3547 31.5 54.8323 32.0224 54.8323 32.6667C54.8323 33.311 55.3547 33.8333 55.9989 33.8333H60.1991C60.4565 33.8333 60.6656 34.0424 60.6656 34.2999V40.3668Z" fill="white"/>
<path d="M13.9989 18.6667H25.6656C26.3099 18.6667 26.8323 18.1443 26.8323 17.5V15.8879L32.1444 18.5499C32.5067 18.7311 32.9379 18.7111 33.282 18.4969C33.6261 18.2827 33.8346 17.9056 33.8323 17.5V5.83335C33.8328 5.42889 33.6232 5.05349 33.2797 4.84043C32.9356 4.62795 32.5061 4.60858 32.1444 4.78916L26.8323 7.44549V5.83335C26.8323 5.18907 26.3099 4.66669 25.6656 4.66669H13.9989C13.3547 4.66669 12.8323 5.18907 12.8323 5.83335V17.5C12.8323 18.1443 13.3547 18.6667 13.9989 18.6667ZM15.1656 7.00002H24.4989V9.33335C24.4989 9.73781 24.708 10.1132 25.0521 10.3263C25.3962 10.5388 25.8257 10.5581 26.1874 10.3775L31.4989 7.72121V15.6122L26.1874 12.9558C25.8257 12.7752 25.3962 12.7946 25.0521 13.0071C24.708 13.2202 24.4989 13.5956 24.4989 14V16.3334H15.1656V7.00002Z" fill="white"/>
</g>
<defs>
<clipPath id="clip0">
<rect width="70" height="70" fill="white"/>
</clipPath>
</defs>
</svg>
