<svg width="70" height="70" viewBox="0 0 70 70" fill="none" xmlns="http://www.w3.org/2000/svg">
<g clip-path="url(#clip0)">
<path d="M60.1614 -1.33514e-05H57.1517C55.8288 -1.33514e-05 55.8288 2.05106 57.1517 2.05106H60.1614C63.2694 2.05106 65.7981 4.57061 65.7981 7.66746V31.4014C65.7981 34.4984 63.2696 37.018 60.1614 37.018H56.7479C56.5227 37.018 56.3038 37.0921 56.1248 37.229L49.8614 42.02V38.0435C49.8614 37.4771 49.4024 37.018 48.8358 37.018H36.3544C35.3322 37.018 34.3499 36.7482 33.4835 36.2353V24.723C33.4835 22.5666 32.3852 20.6614 30.7174 19.5343V7.66746C30.7174 4.57061 33.2461 2.05106 36.3544 2.05106H50.725C52.0478 2.05106 52.0478 -1.33514e-05 50.725 -1.33514e-05H36.3544C32.1152 -1.33514e-05 28.6664 3.43964 28.6664 7.66746V18.6329C28.1968 18.5208 27.7076 18.4597 27.2041 18.4597H8.43043C4.96807 18.4597 2.15112 21.2694 2.15112 24.723V26.9375C2.15112 28.2603 4.2022 28.2603 4.2022 26.9375V24.723C4.2022 22.4004 6.0989 20.5108 8.43043 20.5108H27.2042C29.5357 20.5108 31.4326 22.4004 31.4326 24.723V36.6436C31.4203 36.7341 31.4208 36.8253 31.4326 36.9151V43.4392C31.4326 43.5682 31.4248 43.6966 31.4132 43.8243H29.2982C26.9678 43.8243 25.025 45.5063 24.6222 47.7169C24.5289 47.7521 24.4394 47.8012 24.3564 47.8652L19.7695 51.4068V48.677C19.7695 48.1106 19.3104 47.6514 18.7439 47.6514H8.43043C6.0989 47.6514 4.2022 45.7619 4.2022 43.4392V33.0907C4.2022 31.7679 2.15112 31.7679 2.15112 33.0907V43.4394C2.15112 46.893 4.96807 49.7027 8.43043 49.7027H17.7185V53.4944C17.7185 54.317 18.7174 54.8105 19.3709 54.3062L24.5444 50.3117V61.849C24.5444 64.4641 26.6771 66.5915 29.2984 66.5915H35.5918V68.9846C35.5918 69.8069 36.5906 70.301 37.244 69.7964L41.3948 66.5915H42.6211C45.2424 66.5915 47.3751 64.464 47.3751 61.849V60.0282C47.3751 58.7054 45.324 58.7054 45.324 60.0282V61.849C45.324 63.3332 44.1115 64.5404 42.6211 64.5404H41.0449C40.818 64.5404 40.5976 64.6156 40.4182 64.7542L37.6427 66.897V65.5658C37.6427 64.9995 37.1837 64.5403 36.6172 64.5403H29.2982C27.8079 64.5403 26.5953 63.3329 26.5953 61.8489V48.5669C26.5953 47.0828 27.8078 45.8755 29.2982 45.8755H42.6211C44.1114 45.8755 45.324 47.0829 45.324 48.5669V53.6015C45.324 54.9243 47.3751 54.9243 47.3751 53.6015V48.567C47.3751 45.9519 45.2424 43.8245 42.6211 43.8245H33.4719C33.4797 43.6964 33.4837 38.5166 33.4837 38.5166C34.3879 38.8802 35.3574 39.0692 36.3545 39.0692H47.8104V44.0957C47.8104 44.9163 48.8051 45.4103 49.4591 44.9102L57.0954 39.0692H60.1615C64.4005 39.0692 67.8493 35.6295 67.8493 31.4016V7.66746C67.8492 3.43964 64.4004 -1.33514e-05 60.1614 -1.33514e-05V-1.33514e-05Z" fill="white"/>
<path d="M35.9473 51.1671C35.1192 50.4853 34.0175 50.2163 32.9124 50.485C31.4962 50.8289 30.0671 52.1528 30.0671 54.335C30.0671 55.6933 30.5628 56.8722 31.5825 57.9393C32.4154 58.811 33.6173 59.64 35.4794 60.6272C35.6297 60.7069 35.7947 60.7467 35.9598 60.7467C36.1248 60.7467 36.2898 60.7069 36.4401 60.6272C39.6888 58.905 41.8522 57.1759 41.8522 54.335C41.8522 52.1409 40.3724 50.8306 38.9058 50.5053C37.804 50.2608 36.7357 50.5203 35.9473 51.1671ZM39.801 54.335C39.801 55.8673 38.7846 57.0005 35.9596 58.5556C33.1346 57.0004 32.1181 55.8672 32.1181 54.335C32.1181 53.1949 32.7783 52.6283 33.3962 52.4781C33.5101 52.4505 33.6321 52.4349 33.7574 52.4349C34.2222 52.4349 34.7332 52.6496 35.0483 53.2604C35.2278 53.608 35.5907 53.8235 35.98 53.8154C36.3709 53.8076 36.7236 53.5782 36.8889 53.2238C37.2208 52.5125 37.9187 52.3873 38.4613 52.5078C39.1091 52.6512 39.801 53.2068 39.801 54.335Z" fill="white"/>
<path d="M10.9323 35.62C10.3658 35.62 9.90674 36.0792 9.90674 36.6456C9.90674 37.212 10.3658 37.6711 10.9323 37.6711H13.9553L13.3906 41.0867C13.2981 41.6454 13.6763 42.1734 14.2351 42.2658C14.2918 42.2752 14.348 42.2798 14.4035 42.2798C14.8963 42.2798 15.331 41.9236 15.4142 41.4213L16.0341 37.6713H18.5081L17.9434 41.0869C17.851 41.6456 18.2292 42.1735 18.7879 42.266C18.8447 42.2754 18.9009 42.2799 18.9564 42.2799C19.4492 42.2799 19.8839 41.9237 19.967 41.4215L20.587 37.6714H24.7018C25.2684 37.6714 25.7274 37.2122 25.7274 36.6459C25.7274 36.0795 25.2684 35.6203 24.7018 35.6203H20.9261L21.3397 33.1186H24.7018C25.2684 33.1186 25.7274 32.6594 25.7274 32.093C25.7274 31.5266 25.2684 31.0675 24.7018 31.0675H21.6788L22.2436 27.6519C22.336 27.0932 21.9578 26.5652 21.3991 26.4728C20.8397 26.3801 20.3124 26.7586 20.22 27.3173L19.6 31.0673H17.126L17.6907 27.6518C17.7832 27.093 17.4049 26.5651 16.8462 26.4727C16.2861 26.3799 15.7597 26.7584 15.6671 27.3172L15.0472 31.0672H10.9323C10.3658 31.0672 9.90674 31.5264 9.90674 32.0927C9.90674 32.6591 10.3658 33.1183 10.9323 33.1183H14.708L14.2944 35.62H10.9323ZM16.787 33.1183H19.261L18.8474 35.62H16.3734L16.787 33.1183Z" fill="white"/>
<path d="M50.8202 7.5769C49.518 7.24449 48.1911 8.27331 48.1911 9.61882C48.1911 11.0889 47.6554 12.5056 46.6833 13.6073L43.8577 16.8047C43.6748 16.524 43.3586 16.3381 42.9986 16.3381H37.4826C36.9161 16.3381 36.457 16.7973 36.457 17.3637V29.7748C36.457 30.3411 36.9161 30.8003 37.4826 30.8003H42.9986C43.4131 30.8003 43.7691 30.554 43.9309 30.2004C45.0476 30.8828 46.3417 31.2517 47.6584 31.2517H57.4067C58.8964 31.2517 60.1252 29.9591 60.0554 28.4733C60.0243 27.8153 60.0582 18.9802 60.0582 18.784C60.0582 17.322 58.8688 16.1324 57.4098 16.1324L52.3404 16.1172L52.5503 15.6201C53.5096 13.3485 53.3516 10.7144 52.1284 8.57345C51.8428 8.07326 51.3781 7.71952 50.8202 7.5769C50.262 7.43442 51.3781 7.71952 50.8202 7.5769C49.5182 7.24449 51.3781 7.71952 50.8202 7.5769ZM41.9731 28.7492H38.5081V18.3892H41.9731V28.7492ZM57.4067 18.1833C57.7379 18.1833 58.0073 18.4527 58.0073 18.7839C58.0073 18.979 58.0052 19.5086 58.0025 20.2266C57.9873 24.1909 57.9772 27.9455 58.0065 28.5695C58.0171 28.7948 57.9076 28.9449 57.8414 29.0144C57.7268 29.1344 57.5725 29.2005 57.4067 29.2005H47.6584C46.4964 29.2005 45.3591 28.7978 44.4558 28.0666L44.0241 27.7171V19.7137L48.2208 14.9649C49.5243 13.4876 50.2422 11.5889 50.2422 9.61868C50.2422 9.5607 50.3214 9.54566 50.3476 9.59079C51.2558 11.1801 51.3729 13.1356 50.6609 14.822L49.8515 16.7389C49.7179 17.0552 49.7516 17.4172 49.9407 17.7035C50.1301 17.9898 50.45 18.1624 50.7931 18.1635L57.4067 18.1833Z" fill="white"/>
</g>
<defs>
<clipPath id="clip0">
<rect width="70" height="70" fill="white"/>
</clipPath>
</defs>
</svg>
