<svg width="70" height="70" viewBox="0 0 70 70" fill="none" xmlns="http://www.w3.org/2000/svg">
<path d="M59.7488 10.2513C53.1381 3.64055 44.3488 0 35 0C25.6512 0 16.8619 3.64055 10.2512 10.2513C3.64068 16.8619 0 25.6512 0 35C0 44.3488 3.64068 53.1381 10.2512 59.7487C16.8619 66.3595 25.6512 70 35 70C44.3488 70 53.1381 66.3595 59.7488 59.7487C66.3593 53.1381 70 44.3488 70 35C70 25.6512 66.3593 16.8619 59.7488 10.2513ZM35 67.2656C17.2087 67.2656 2.73438 52.7913 2.73438 35C2.73438 17.2087 17.2087 2.73438 35 2.73438C52.7913 2.73438 67.2656 17.2087 67.2656 35C67.2656 52.7913 52.7913 67.2656 35 67.2656Z" fill="#A9AFC3"/>
<path d="M29.2666 61.1825L29.1821 61.164C28.4456 61.0003 27.7147 61.4649 27.5509 62.2019C27.3871 62.939 27.8518 63.6693 28.589 63.8331L28.6847 63.8542C28.7827 63.8755 28.8806 63.8857 28.977 63.8857C29.6061 63.8857 30.1722 63.4489 30.3115 62.8094C30.4722 62.0715 30.0043 61.3432 29.2666 61.1825Z" fill="#A9AFC3"/>
<path d="M34.979 57.7587C34.224 57.7587 33.6118 58.3708 33.6118 59.1259V63.1641C33.6118 63.9192 34.224 64.5312 34.979 64.5312C35.734 64.5312 36.3462 63.9192 36.3462 63.1641V59.1259C36.3462 58.3708 35.734 57.7587 34.979 57.7587Z" fill="#A9AFC3"/>
<path d="M62.8091 39.6885C62.0721 39.5276 61.3432 39.9956 61.1822 40.7333C58.8994 51.2094 50.6222 59.2877 40.095 61.3135C39.3535 61.4561 38.8681 62.1729 39.0107 62.9143C39.1366 63.5685 39.7095 64.0234 40.3519 64.0234C40.4375 64.0234 40.5246 64.0153 40.6117 63.9985C46.2858 62.9066 51.4811 60.1839 55.6358 56.1247C59.7842 52.0717 62.626 46.9507 63.8539 41.3153C64.0145 40.5776 63.5468 39.8493 62.8091 39.6885Z" fill="#A9AFC3"/>
<path d="M24.67 59.7338C16.3592 56.2586 10.3842 48.917 8.68658 40.0952C8.54398 39.3538 7.82812 38.8676 7.08574 39.0111C6.34418 39.1537 5.85882 39.8705 6.00142 40.6119C6.92168 45.3932 9.04588 49.92 12.1449 53.7026C15.2081 57.4416 19.1744 60.3994 23.615 62.2564C23.7873 62.3285 23.9661 62.3626 24.1419 62.3626C24.6767 62.3626 25.1846 62.0468 25.4037 61.5225C25.6951 60.8259 25.3665 60.025 24.67 59.7338Z" fill="#A9AFC3"/>
<path d="M63.1641 33.6536H59.4727C58.7177 33.6536 58.1055 34.2657 58.1055 35.0208C58.1055 35.7759 58.7177 36.388 59.4727 36.388H63.1641C63.919 36.388 64.5312 35.7759 64.5312 35.0208C64.5312 34.2657 63.919 33.6536 63.1641 33.6536Z" fill="#A9AFC3"/>
<path d="M10.8008 33.612H6.83594C6.08098 33.612 5.46875 34.2241 5.46875 34.9792C5.46875 35.7343 6.08098 36.3464 6.83594 36.3464H10.8008C11.5557 36.3464 12.168 35.7343 12.168 34.9792C12.168 34.2241 11.5557 33.612 10.8008 33.612Z" fill="#A9AFC3"/>
<path d="M35 30.3516C32.4368 30.3516 30.3516 32.4368 30.3516 35C30.3516 37.5632 32.4368 39.6484 35 39.6484C37.5632 39.6484 39.6484 37.5632 39.6484 35C39.6484 32.4368 37.5632 30.3516 35 30.3516ZM35 36.9141C33.9445 36.9141 33.0859 36.0555 33.0859 35C33.0859 33.9445 33.9445 33.0859 35 33.0859C36.0555 33.0859 36.9141 33.9445 36.9141 35C36.9141 36.0555 36.0555 36.9141 35 36.9141Z" fill="#A9AFC3"/>
<path d="M31.7186 33.6328H25.4751C24.7201 33.6328 24.1079 34.2449 24.1079 35C24.1079 35.7551 24.7201 36.3672 25.4751 36.3672H31.7186C32.4736 36.3672 33.0858 35.7551 33.0858 35C33.0858 34.2449 32.4736 33.6328 31.7186 33.6328Z" fill="#A9AFC3"/>
<path d="M35 17.5455C34.245 17.5455 33.6328 18.1576 33.6328 18.9127V31.7187C33.6328 32.4738 34.245 33.0859 35 33.0859C35.755 33.0859 36.3672 32.4738 36.3672 31.7187V18.9127C36.3672 18.1576 35.755 17.5455 35 17.5455Z" fill="#A9AFC3"/>
<path d="M63.9981 29.3883C62.1551 19.8118 55.6982 11.7746 46.7252 7.88882C46.0324 7.58872 45.2274 7.90728 44.9273 8.60003C44.6274 9.29292 44.9458 10.0979 45.6387 10.3979C53.7815 13.9243 59.641 21.2166 61.3129 29.9049C61.4388 30.5591 62.0117 31.014 62.6541 31.014C62.7397 31.014 62.8267 31.0059 62.9138 30.9891C63.6552 30.8465 64.1407 30.1297 63.9981 29.3883Z" fill="#A9AFC3"/>
<path d="M41.3479 6.15306L41.312 6.14526C40.5743 5.98612 39.8465 6.45562 39.6877 7.1939C39.5287 7.93204 39.9982 8.65925 40.7363 8.81825L40.7523 8.8218C40.8527 8.84423 40.9527 8.85489 41.0515 8.85489C41.6776 8.85489 42.2426 8.42177 42.3845 7.7852C42.5489 7.04815 42.0848 6.31753 41.3479 6.15306Z" fill="#A9AFC3"/>
<path d="M30.989 7.08589C30.8463 6.34447 30.1296 5.8583 29.388 6.00171C23.7139 7.09355 18.5186 9.8163 14.3639 13.8755C10.2156 17.9285 7.37372 23.0494 6.14585 28.6849C5.98521 29.4226 6.45292 30.1509 7.19066 30.3117C7.28869 30.333 7.38671 30.3433 7.4831 30.3433C8.11214 30.3433 8.67829 29.9066 8.81761 29.2669C11.1004 18.7907 19.3776 10.7125 29.9047 8.68673C30.6463 8.54414 31.1316 7.82732 30.989 7.08589Z" fill="#A9AFC3"/>
<path d="M35.021 5.46875C34.266 5.46875 33.6538 6.08084 33.6538 6.83594V9.89953C33.6538 10.6546 34.266 11.2667 35.021 11.2667C35.7761 11.2667 36.3882 10.6546 36.3882 9.89953V6.83594C36.3882 6.08084 35.776 5.46875 35.021 5.46875Z" fill="#A9AFC3"/>
</svg>
