<svg width="70" height="70" viewBox="0 0 70 70" fill="none" xmlns="http://www.w3.org/2000/svg">
<g clip-path="url(#clip0)">
<path d="M66.3378 26.6218C69.2311 23.0839 70.4965 18.4891 69.8227 13.9687C68.5152 5.04624 60.2222 -1.12696 51.2996 0.180599C47.2769 0.770161 43.6187 2.83917 41.0409 5.98306C39.006 8.58215 35.6328 9.7413 32.4301 8.94195C29.7372 8.19377 26.9216 7.9923 24.1494 8.34947C14.7772 9.6149 7.38133 16.9433 6.02988 26.3034C5.4498 30.4821 6.15001 34.7385 8.03824 38.511C3.5343 38.576 -0.0641535 42.2799 0.000867451 46.7837C0.059328 50.8367 3.08557 54.2318 7.10521 54.754L8.36364 67.6614C8.36364 68.9497 9.40791 69.994 10.6962 69.994H17.5016C18.1825 69.9934 18.8294 69.6951 19.272 69.1776C19.7327 68.6275 19.9212 67.8993 19.7852 67.1949L16.6665 54.8322H17.2496C18.5396 54.8392 19.8277 54.9319 21.1054 55.1097C25.2914 64.1847 34.3733 69.9959 44.3672 69.994C45.1369 69.994 45.9144 69.9594 46.6998 69.8902C59.0728 68.6686 68.8231 58.8111 69.909 46.4255C70.3662 40.9292 69.0267 35.4329 66.0917 30.7633C65.2772 29.473 65.3762 27.8068 66.3378 26.6218ZM7.00491 52.3829C3.84862 51.7421 1.80965 48.6639 2.45052 45.5076C2.91646 43.2128 4.71007 41.4192 7.00491 40.9532V52.3829ZM17.5016 67.6614L10.6904 67.5448L9.45412 54.8322H14.2581L17.5016 67.6614ZM9.3375 52.4996V40.8366H11.6701V52.4996H9.3375ZM17.2461 52.4996H14.0027V40.8366H17.2461C20.6309 40.8378 23.9935 40.292 27.204 39.2201L32.6634 37.4007V55.9355L27.204 54.1161C23.9935 53.0444 20.6309 52.4984 17.2461 52.4996ZM67.5764 46.2377C66.5462 59.0584 55.3179 68.6163 42.4973 67.5862C34.7076 66.9602 27.7513 62.4691 23.9745 55.6276C24.8119 55.827 25.6446 56.0544 26.4669 56.3274L39.2961 60.603C39.4138 60.6423 39.5371 60.6628 39.6612 60.6636C40.3053 60.6636 40.8275 60.1414 40.8275 59.4973V53.6659C43.4039 53.6659 45.4926 51.5772 45.4926 49.0007V44.3355C45.4926 41.759 43.4039 39.6703 40.8275 39.6703V33.8388C40.8276 33.1948 40.3055 32.6724 39.6615 32.6723C39.5361 32.6723 39.4116 32.6924 39.2926 32.732L26.4634 37.0077C23.4915 37.999 20.3791 38.5043 17.2461 38.504H10.6962C8.59938 34.9149 7.77 30.7251 8.34148 26.6078C9.75095 16.4052 19.1644 9.27682 29.367 10.6861C30.1884 10.7996 31.0013 10.9678 31.8003 11.1894C35.8939 12.2392 40.2217 10.7793 42.8428 7.46426C47.7257 1.47781 56.5369 0.583116 62.5235 5.46581C68.51 10.3485 69.4047 19.1599 64.5219 25.1465C62.9301 27.1063 62.7636 29.8624 64.1079 31.9996C66.7752 36.2449 67.9924 41.2413 67.5764 46.2377ZM34.996 56.7134V36.6228L38.4949 35.4565V57.8797L34.996 56.7134ZM40.8275 51.3333V42.0029C42.1158 42.0029 43.16 43.0472 43.16 44.3355V49.0007C43.16 50.289 42.1156 51.3333 40.8275 51.3333Z" fill="white"/>
<path d="M46.6184 58.0475L44.3567 58.6129L45.5228 63.2777L47.7845 62.7124L46.6184 58.0475Z" fill="white"/>
<path d="M48.3451 54.9544L47.302 57.0406L51.9669 59.3731L53.01 57.2868L48.3451 54.9544Z" fill="white"/>
<path d="M21.0004 47.8344H16.3352V50.1669H21.0004V47.8344Z" fill="white"/>
<path d="M21.0004 43.1692H16.3352V45.5018H21.0004V43.1692Z" fill="white"/>
<path d="M64.2934 42.3552L63.7966 41.8561C62.6148 40.682 60.7708 40.4998 59.3821 41.4199L58.1214 42.2608L56.8606 41.4199C55.4721 40.4989 53.6275 40.6812 52.4462 41.8561L51.947 42.3552C50.5811 43.7216 50.5811 45.9363 51.947 47.3027L57.2956 52.6501C57.7511 53.1054 58.4893 53.1054 58.9448 52.6501L64.2934 47.3027C65.6593 45.9363 65.6593 43.7216 64.2934 42.3552ZM62.6463 45.6526C62.646 45.6529 62.6457 45.6532 62.6454 45.6535L58.1214 50.1764L53.5985 45.6582C53.1432 45.2027 53.1432 44.4645 53.5985 44.009L54.0965 43.511C54.4897 43.1177 55.1058 43.0568 55.5684 43.3652L57.4752 44.6365C57.8671 44.8981 58.378 44.8981 58.7698 44.6365L60.6779 43.3652C61.14 43.0571 61.7554 43.1176 62.1486 43.5099V43.5052L62.6454 44.0032C63.1012 44.4585 63.1016 45.1969 62.6463 45.6526Z" fill="white"/>
<path d="M45.5303 31.2247L44.3628 35.8896L46.6245 36.4557L47.792 31.7908L45.5303 31.2247Z" fill="white"/>
<path d="M51.9674 35.1281L47.3025 37.4606L48.3456 39.5468L53.0105 37.2144L51.9674 35.1281Z" fill="white"/>
<path d="M30.3308 21.0096H29.1646C28.5205 21.0096 27.9983 20.4874 27.9983 19.8433V16.3444C27.9983 14.412 26.4318 12.8455 24.4994 12.8455C22.567 12.8455 21.0005 14.412 21.0005 16.3444V19.8433C21.0005 20.4874 20.4783 21.0096 19.8342 21.0096C19.8342 20.3655 19.312 19.8433 18.6679 19.8433H14.0027C13.3586 19.8433 12.8364 20.3655 12.8364 21.0096V33.8388C12.8364 34.4829 13.3586 35.0051 14.0027 35.0051H18.6679C19.312 35.0051 19.8342 34.4829 19.8342 33.8388H30.3308C32.2633 33.8388 33.8297 32.2724 33.8297 30.34V24.5085C33.8297 22.5762 32.2633 21.0096 30.3308 21.0096ZM17.5016 32.6725H15.169V22.1759H17.5016V32.6725ZM31.4971 30.34C31.4971 30.984 30.9749 31.5062 30.3308 31.5062H19.8342V23.3422C21.7666 23.3422 23.3331 21.7757 23.3331 19.8433V16.3444C23.3331 15.7003 23.8553 15.1781 24.4994 15.1781C25.1435 15.1781 25.6657 15.7003 25.6657 16.3444V19.8433C25.6657 21.7757 27.2321 23.3422 29.1646 23.3422H30.3308C30.9749 23.3422 31.4971 23.8644 31.4971 24.5085V30.34Z" fill="white"/>
<path d="M59.2924 15.6975C59.207 15.5695 59.0972 15.4595 58.9691 15.3741L51.9713 10.7089C51.4355 10.3515 50.7113 10.4959 50.3538 11.0319C50.2259 11.2236 50.1577 11.4488 50.1577 11.6793V21.0097C50.1576 21.4399 50.3942 21.8352 50.7735 22.0383C51.153 22.2414 51.6134 22.219 51.9713 21.98L58.9691 17.3148C59.505 16.9575 59.6497 16.2334 59.2924 15.6975ZM52.4903 18.8298V13.8591L56.2224 16.3445L52.4903 18.8298Z" fill="white"/>
<path d="M53.6568 5.84778C47.8597 5.84778 43.1602 10.5472 43.1602 16.3444C43.1666 22.1389 47.8624 26.8347 53.6568 26.8411C59.454 26.8411 64.1535 22.1415 64.1535 16.3444C64.1535 10.5474 59.4539 5.84778 53.6568 5.84778ZM53.6568 24.5085C49.1479 24.5085 45.4927 20.8533 45.4927 16.3444C45.4978 11.8377 49.1501 8.18547 53.6568 8.18037C58.1657 8.18037 61.8209 11.8355 61.8209 16.3444C61.8209 20.8533 58.1657 24.5085 53.6568 24.5085Z" fill="white"/>
<path d="M1.17334 31.5062H3.50593C3.50593 15.6796 12.8911 5.84776 27.9981 5.84776V3.51517C11.4519 3.51517 1.17334 14.2451 1.17334 31.5062Z" fill="white"/>
</g>
<defs>
<clipPath id="clip0">
<rect width="70" height="70" fill="white"/>
</clipPath>
</defs>
</svg>
