<svg width="70" height="70" viewBox="0 0 70 70" fill="none" xmlns="http://www.w3.org/2000/svg">
<path d="M25.1562 56.875H9.84375C9.55367 56.875 9.27547 56.9902 9.07035 57.1954C8.86523 57.4005 8.75 57.6787 8.75 57.9688V62.3438C8.75 62.6338 8.86523 62.912 9.07035 63.1171C9.27547 63.3223 9.55367 63.4375 9.84375 63.4375H25.1562C25.4463 63.4375 25.7245 63.3223 25.9296 63.1171C26.1348 62.912 26.25 62.6338 26.25 62.3438V57.9688C26.25 57.6787 26.1348 57.4005 25.9296 57.1954C25.7245 56.9902 25.4463 56.875 25.1562 56.875ZM24.0625 61.25H10.9375V59.0625H24.0625V61.25Z" fill="white"/>
<path d="M41.5624 54.6875C40.5622 54.6889 39.5929 55.0341 38.8171 55.6653C38.1751 55.1444 37.3988 54.816 36.5779 54.7182C35.757 54.6204 34.9252 54.7572 34.1788 55.1127C33.4325 55.4683 32.8022 56.028 32.3608 56.727C31.9195 57.426 31.6853 58.2358 31.6853 59.0625C31.6853 59.8892 31.9195 60.699 32.3608 61.398C32.8022 62.0971 33.4325 62.6568 34.1788 63.0123C34.9252 63.3678 35.757 63.5046 36.5779 63.4068C37.3988 63.309 38.1751 62.9806 38.8171 62.4597C39.3612 62.9013 40.0035 63.2057 40.6898 63.3473C41.3761 63.4889 42.0864 63.4635 42.7609 63.2734C43.4354 63.0832 44.0543 62.7339 44.5656 62.2546C45.0769 61.7754 45.4656 61.1804 45.699 60.5196C45.9324 59.8589 46.0037 59.1517 45.9068 58.4577C45.8099 57.7636 45.5477 57.103 45.1423 56.5314C44.7369 55.9598 44.2001 55.494 43.5771 55.1731C42.9541 54.8522 42.2631 54.6857 41.5624 54.6875ZM36.0936 61.25C35.661 61.25 35.2381 61.1217 34.8783 60.8814C34.5186 60.641 34.2382 60.2994 34.0726 59.8996C33.9071 59.4999 33.8638 59.0601 33.9482 58.6358C34.0326 58.2114 34.2409 57.8216 34.5468 57.5157C34.8528 57.2098 35.2425 57.0015 35.6669 56.917C36.0912 56.8326 36.531 56.876 36.9307 57.0415C37.3305 57.2071 37.6721 57.4875 37.9125 57.8472C38.1528 58.2069 38.2811 58.6299 38.2811 59.0625C38.2811 59.6427 38.0507 60.1991 37.6404 60.6093C37.2302 61.0196 36.6738 61.25 36.0936 61.25ZM41.5624 61.25C41.0396 61.2514 40.5342 61.0624 40.1405 60.7185C40.3586 60.1936 40.4708 59.6309 40.4708 59.0625C40.4708 58.4942 40.3586 57.9314 40.1405 57.4066C40.5342 57.0626 41.0396 56.8737 41.5624 56.875C42.1425 56.875 42.6989 57.1055 43.1092 57.5157C43.5194 57.926 43.7499 58.4824 43.7499 59.0625C43.7499 59.6427 43.5194 60.1991 43.1092 60.6093C42.6989 61.0196 42.1425 61.25 41.5624 61.25Z" fill="white"/>
<path d="M45.9375 7.65625H48.125C48.4151 7.65625 48.6933 7.54102 48.8984 7.3359C49.1035 7.13078 49.2188 6.85258 49.2188 6.5625C49.2188 6.27242 49.1035 5.99422 48.8984 5.7891C48.6933 5.58398 48.4151 5.46875 48.125 5.46875H45.9375C45.6474 5.46875 45.3692 5.58398 45.1641 5.7891C44.959 5.99422 44.8438 6.27242 44.8438 6.5625C44.8438 6.85258 44.959 7.13078 45.1641 7.3359C45.3692 7.54102 45.6474 7.65625 45.9375 7.65625Z" fill="white"/>
<path d="M62.3438 2.1875H31.7188C30.2689 2.18924 28.8789 2.76596 27.8537 3.79118C26.8285 4.81639 26.2517 6.20638 26.25 7.65625V37.1875H7.65625C6.20638 37.1892 4.81639 37.766 3.79118 38.7912C2.76596 39.8164 2.18924 41.2064 2.1875 42.6562V62.3438C2.18924 63.7936 2.76596 65.1836 3.79118 66.2088C4.81639 67.234 6.20638 67.8108 7.65625 67.8125H62.3438C63.7936 67.8108 65.1836 67.234 66.2088 66.2088C67.234 65.1836 67.8108 63.7936 67.8125 62.3438V7.65625C67.8108 6.20638 67.234 4.81639 66.2088 3.79118C65.1836 2.76596 63.7936 2.18924 62.3438 2.1875ZM31.7188 4.375H62.3438C63.214 4.375 64.0486 4.7207 64.6639 5.33606C65.2793 5.95141 65.625 6.78601 65.625 7.65625V8.75H28.4375V7.65625C28.4375 6.78601 28.7832 5.95141 29.3986 5.33606C30.0139 4.7207 30.8485 4.375 31.7188 4.375ZM28.4375 10.9375H65.625V56.875H50.3125V42.6562C50.3108 41.2064 49.734 39.8164 48.7088 38.7912C47.6836 37.766 46.2936 37.1892 44.8438 37.1875H28.4375V10.9375ZM4.375 45.9375H48.125V48.125H4.375V45.9375ZM7.65625 39.375H44.8438C45.714 39.375 46.5486 39.7207 47.1639 40.3361C47.7793 40.9514 48.125 41.786 48.125 42.6562V43.75H4.375V42.6562C4.375 41.786 4.7207 40.9514 5.33606 40.3361C5.95141 39.7207 6.78601 39.375 7.65625 39.375ZM4.375 62.3438V50.3125H48.125V62.3438C48.125 63.214 47.7793 64.0486 47.1639 64.6639C46.5486 65.2793 45.714 65.625 44.8438 65.625H7.65625C6.78601 65.625 5.95141 65.2793 5.33606 64.6639C4.7207 64.0486 4.375 63.214 4.375 62.3438ZM62.3438 65.625H49.1903C49.9142 64.6839 50.3085 63.531 50.3125 62.3438V59.0625H65.625V62.3438C65.625 63.214 65.2793 64.0486 64.6639 64.6639C64.0486 65.2793 63.214 65.625 62.3438 65.625Z" fill="white"/>
<path d="M56.875 30.625V19.6875C56.875 19.3974 56.7598 19.1192 56.5546 18.9141C56.3495 18.709 56.0713 18.5938 55.7812 18.5938H52.5C52.5 17.1433 51.9238 15.7523 50.8982 14.7268C49.8727 13.7012 48.4817 13.125 47.0312 13.125C45.5808 13.125 44.1898 13.7012 43.1643 14.7268C42.1387 15.7523 41.5625 17.1433 41.5625 18.5938H38.2812C37.9912 18.5938 37.713 18.709 37.5079 18.9141C37.3027 19.1192 37.1875 19.3974 37.1875 19.6875V30.625C37.1892 32.0749 37.766 33.4649 38.7912 34.4901C39.8164 35.5153 41.2064 36.092 42.6562 36.0938H51.4062C52.8561 36.092 54.2461 35.5153 55.2713 34.4901C56.2965 33.4649 56.8733 32.0749 56.875 30.625ZM47.0312 15.3125C47.9015 15.3125 48.7361 15.6582 49.3514 16.2736C49.9668 16.8889 50.3125 17.7235 50.3125 18.5938H43.75C43.75 17.7235 44.0957 16.8889 44.7111 16.2736C45.3264 15.6582 46.161 15.3125 47.0312 15.3125ZM39.375 30.625V20.7812H41.5625V22.9688C41.5625 23.2588 41.6777 23.537 41.8829 23.7421C42.088 23.9473 42.3662 24.0625 42.6562 24.0625C42.9463 24.0625 43.2245 23.9473 43.4296 23.7421C43.6348 23.537 43.75 23.2588 43.75 22.9688V20.7812H50.3125V22.9688C50.3125 23.2588 50.4277 23.537 50.6329 23.7421C50.838 23.9473 51.1162 24.0625 51.4062 24.0625C51.6963 24.0625 51.9745 23.9473 52.1796 23.7421C52.3848 23.537 52.5 23.2588 52.5 22.9688V20.7812H54.6875V30.625C54.6875 31.4952 54.3418 32.3298 53.7264 32.9452C53.1111 33.5605 52.2765 33.9062 51.4062 33.9062H42.6562C41.786 33.9062 40.9514 33.5605 40.3361 32.9452C39.7207 32.3298 39.375 31.4952 39.375 30.625Z" fill="white"/>
</svg>
